<svg width="171" height="35" viewBox="0 0 171 35" fill="none" xmlns="http://www.w3.org/2000/svg">
<path d="M10.5479 10.5479C10.5479 4.72245 5.82544 0 0 0V21.0958C0 26.9212 4.72245 31.6437 10.5479 31.6437V10.5479Z" fill="#D4FB20"/>
<path d="M18.4588 10.5479C24.2842 10.5479 29.0067 15.2703 29.0067 21.0958H21.0958C15.2703 21.0958 10.5479 16.3733 10.5479 10.5479L18.4588 10.5479Z" fill="#D4FB20"/>
<path d="M18.4588 31.6437C24.2842 31.6437 29.0067 26.9212 29.0067 21.0958H21.0958C15.2703 21.0958 10.5479 25.8182 10.5479 31.6437L18.4588 31.6437Z" fill="#D4FB20"/>
<path d="M48.7172 30.1368H37.892V13.9835H48.1627C51.6585 13.9835 53.3944 15.3577 53.3944 17.8892C53.3944 19.9626 52.3095 21.4333 49.3681 21.5539V21.795C52.5988 21.9155 54.1418 23.4103 54.1418 25.6525C54.1418 28.3768 52.5747 30.1368 48.7172 30.1368ZM42.4005 18.058V20.1073H47.6805C48.5966 20.1073 48.8618 19.8421 48.8618 19.0947C48.8618 18.3473 48.5002 18.058 47.5599 18.058H42.4005ZM42.4005 23.8201V26.0623H48.1386C49.2235 26.0623 49.561 25.8453 49.561 24.9292C49.561 24.0371 49.2476 23.8201 48.1386 23.8201H42.4005ZM57.7791 34.2354H55.5852V30.1368H59.1052C59.4668 30.1368 59.7561 30.0886 59.949 29.9922L54.1386 17.9857H59.298L61.3956 22.7593L62.2635 25.556H62.5769L63.3725 22.7111L65.1807 17.9857H70.2437L64.4816 30.619C63.1797 33.488 61.3232 34.2354 57.7791 34.2354ZM79.8257 30.1368H76.6433C73.6055 30.1368 71.7973 28.6661 71.7973 25.5078V21.6985H70.0132V17.9857H71.7973V15.8881H76.3299V17.9857H79.8257V21.6985H76.3299V24.8569C76.3299 25.8212 76.6192 26.0623 77.6559 26.0623H79.8257V30.1368ZM87.6824 30.3779C83.5597 30.3779 80.6666 28.6179 80.6666 24.0612C80.6666 20.1073 83.5356 17.7446 87.586 17.7446C91.781 17.7446 94.4572 19.8421 94.4572 23.7478C94.4572 24.1577 94.4331 24.4711 94.3848 24.9051H84.8616C84.9339 26.3758 85.5849 26.7856 87.5136 26.7856C89.346 26.7856 89.8281 26.4722 89.8281 25.7489V25.4837H94.3607V25.773C94.3607 28.4733 91.781 30.3779 87.6824 30.3779ZM87.4895 21.2163C85.826 21.2163 85.1268 21.578 84.9339 22.6147H90.0692C89.9005 21.578 89.1772 21.2163 87.4895 21.2163ZM103.506 30.3779C98.5631 30.3779 95.5494 28.6179 95.5494 24.5193V24.3747H100.082V24.881C100.082 25.9659 100.468 26.2552 103.506 26.2552C106.254 26.2552 106.543 26.0382 106.543 25.3149C106.543 24.7363 106.23 24.4952 104.904 24.3264L99.8409 23.6514C96.8272 23.2415 95.3083 21.6262 95.3083 19.0224C95.3083 16.4427 97.3094 13.7424 103.144 13.7424C108.279 13.7424 110.738 15.9846 110.738 19.601V19.7456H106.206V19.384C106.206 18.2268 105.7 17.841 102.662 17.841C100.347 17.841 99.8409 18.1544 99.8409 18.8536C99.8409 19.3599 100.13 19.601 100.998 19.7215L106.061 20.4689C110.015 21.0476 111.076 23.0728 111.076 25.1462C111.076 27.9188 108.954 30.3779 103.506 30.3779ZM116.684 34.2354H112.151V17.9857H116.394V21.2645H116.635C117.021 18.8536 118.468 17.7446 121.313 17.7446C125.026 17.7446 127.075 20.1314 127.075 24.0612C127.075 28.0152 125.074 30.3779 121.506 30.3779C118.637 30.3779 117.286 29.0278 116.925 27.0026H116.684V34.2354ZM116.684 24.2059C116.684 25.9177 117.648 26.2552 119.673 26.2552C121.771 26.2552 122.494 25.6766 122.494 24.0612C122.494 22.4459 121.771 21.8914 119.673 21.8914C117.648 21.8914 116.684 22.2771 116.684 24.0371V24.2059ZM132.209 30.3779C129.46 30.3779 127.917 29.1242 127.917 27.0508C127.917 25.339 129.099 24.1095 131.847 23.8443L136.79 23.3621V23.121C136.79 21.8914 136.259 21.6985 134.644 21.6985C133.149 21.6985 132.691 21.9878 132.691 23.0004V23.0969H128.158V23.0486C128.158 19.818 130.859 17.7446 134.981 17.7446C139.225 17.7446 141.274 19.818 141.274 23.2174V30.1368H137.031V27.5812H136.79C136.332 29.293 134.837 30.3779 132.209 30.3779ZM132.474 26.7615C132.474 27.1473 132.86 27.2196 133.559 27.2196C135.753 27.2196 136.645 26.9544 136.766 25.8695L133.053 26.3034C132.643 26.3516 132.474 26.4963 132.474 26.7615ZM149.44 30.3779C145.125 30.3779 142.376 27.9911 142.376 24.0612C142.376 20.1073 145.125 17.7446 149.44 17.7446C153.587 17.7446 156.239 19.8662 156.239 23.121V23.5067H151.731V23.3138C151.731 22.0602 150.815 21.795 149.344 21.795C147.68 21.795 146.885 22.1566 146.885 24.0612C146.885 25.9418 147.68 26.3034 149.344 26.3034C150.815 26.3034 151.731 26.0623 151.731 24.8086V24.5916H156.239V25.0015C156.239 28.2322 153.587 30.3779 149.44 30.3779ZM164.225 30.3779C160.103 30.3779 157.209 28.6179 157.209 24.0612C157.209 20.1073 160.078 17.7446 164.129 17.7446C168.324 17.7446 171 19.8421 171 23.7478C171 24.1577 170.976 24.4711 170.928 24.9051H161.404C161.477 26.3758 162.128 26.7856 164.056 26.7856C165.889 26.7856 166.371 26.4722 166.371 25.7489V25.4837H170.904V25.773C170.904 28.4733 168.324 30.3779 164.225 30.3779ZM164.032 21.2163C162.369 21.2163 161.67 21.578 161.477 22.6147H166.612C166.443 21.578 165.72 21.2163 164.032 21.2163Z" fill="#242528"/>
</svg>
